<mxfile host="app.diagrams.net" agent="Mozilla/5.0 (Windows NT 10.0; Win64; x64) AppleWebKit/537.36 (KHTML, like Gecko) Chrome/122.0.0.0 Safari/537.36" version="24.8.4" pages="3">
  <diagram name="Диаграмма классов" id="9R0pFA_rHagokdyUQoL_">
    <mxGraphModel dx="1994" dy="617" grid="1" gridSize="10" guides="1" tooltips="1" connect="1" arrows="1" fold="1" page="1" pageScale="1" pageWidth="827" pageHeight="1169" math="0" shadow="0">
      <root>
        <mxCell id="0" />
        <mxCell id="1" parent="0" />
        <mxCell id="GPboHP2lbTyr-8-YOAkZ-1" value="Member" style="swimlane;fontStyle=1;align=center;verticalAlign=top;childLayout=stackLayout;horizontal=1;startSize=26;horizontalStack=0;resizeParent=1;resizeParentMax=0;resizeLast=0;collapsible=1;marginBottom=0;whiteSpace=wrap;html=1;" parent="1" vertex="1">
          <mxGeometry x="20" y="330" width="190" height="112" as="geometry" />
        </mxCell>
        <mxCell id="GPboHP2lbTyr-8-YOAkZ-3" value="" style="line;strokeWidth=1;fillColor=none;align=left;verticalAlign=middle;spacingTop=-1;spacingLeft=3;spacingRight=3;rotatable=0;labelPosition=right;points=[];portConstraint=eastwest;strokeColor=inherit;" parent="GPboHP2lbTyr-8-YOAkZ-1" vertex="1">
          <mxGeometry y="26" width="190" height="8" as="geometry" />
        </mxCell>
        <mxCell id="GPboHP2lbTyr-8-YOAkZ-4" value="+ JoinClub(club: Club&lt;span style=&quot;background-color: initial;&quot;&gt;)&lt;/span&gt;" style="text;strokeColor=none;fillColor=none;align=left;verticalAlign=top;spacingLeft=4;spacingRight=4;overflow=hidden;rotatable=0;points=[[0,0.5],[1,0.5]];portConstraint=eastwest;whiteSpace=wrap;html=1;" parent="GPboHP2lbTyr-8-YOAkZ-1" vertex="1">
          <mxGeometry y="34" width="190" height="26" as="geometry" />
        </mxCell>
        <mxCell id="EEQmg-H-sVEe2iOd3B1p-10" value="+ MakeVisit(club: Club&lt;span style=&quot;background-color: initial;&quot;&gt;)&lt;/span&gt;" style="text;strokeColor=none;fillColor=none;align=left;verticalAlign=top;spacingLeft=4;spacingRight=4;overflow=hidden;rotatable=0;points=[[0,0.5],[1,0.5]];portConstraint=eastwest;whiteSpace=wrap;html=1;" parent="GPboHP2lbTyr-8-YOAkZ-1" vertex="1">
          <mxGeometry y="60" width="190" height="26" as="geometry" />
        </mxCell>
        <mxCell id="wYMSdKGh9l-tJPNO8r0--2" value="+ OrderService(service: Service&lt;span style=&quot;background-color: initial;&quot;&gt;)&lt;/span&gt;" style="text;strokeColor=none;fillColor=none;align=left;verticalAlign=top;spacingLeft=4;spacingRight=4;overflow=hidden;rotatable=0;points=[[0,0.5],[1,0.5]];portConstraint=eastwest;whiteSpace=wrap;html=1;" parent="GPboHP2lbTyr-8-YOAkZ-1" vertex="1">
          <mxGeometry y="86" width="190" height="26" as="geometry" />
        </mxCell>
        <mxCell id="GPboHP2lbTyr-8-YOAkZ-5" value="Club" style="swimlane;fontStyle=1;align=center;verticalAlign=top;childLayout=stackLayout;horizontal=1;startSize=26;horizontalStack=0;resizeParent=1;resizeParentMax=0;resizeLast=0;collapsible=1;marginBottom=0;whiteSpace=wrap;html=1;" parent="1" vertex="1">
          <mxGeometry x="40" y="40" width="160" height="112" as="geometry" />
        </mxCell>
        <mxCell id="GPboHP2lbTyr-8-YOAkZ-6" value="+ name: String" style="text;strokeColor=none;fillColor=none;align=left;verticalAlign=top;spacingLeft=4;spacingRight=4;overflow=hidden;rotatable=0;points=[[0,0.5],[1,0.5]];portConstraint=eastwest;whiteSpace=wrap;html=1;" parent="GPboHP2lbTyr-8-YOAkZ-5" vertex="1">
          <mxGeometry y="26" width="160" height="26" as="geometry" />
        </mxCell>
        <mxCell id="GPboHP2lbTyr-8-YOAkZ-7" value="" style="line;strokeWidth=1;fillColor=none;align=left;verticalAlign=middle;spacingTop=-1;spacingLeft=3;spacingRight=3;rotatable=0;labelPosition=right;points=[];portConstraint=eastwest;strokeColor=inherit;" parent="GPboHP2lbTyr-8-YOAkZ-5" vertex="1">
          <mxGeometry y="52" width="160" height="8" as="geometry" />
        </mxCell>
        <mxCell id="GPboHP2lbTyr-8-YOAkZ-8" value="+ CreateService(args [])" style="text;strokeColor=none;fillColor=none;align=left;verticalAlign=top;spacingLeft=4;spacingRight=4;overflow=hidden;rotatable=0;points=[[0,0.5],[1,0.5]];portConstraint=eastwest;whiteSpace=wrap;html=1;" parent="GPboHP2lbTyr-8-YOAkZ-5" vertex="1">
          <mxGeometry y="60" width="160" height="26" as="geometry" />
        </mxCell>
        <mxCell id="EEQmg-H-sVEe2iOd3B1p-8" value="+ CreateBonus(args [])" style="text;strokeColor=none;fillColor=none;align=left;verticalAlign=top;spacingLeft=4;spacingRight=4;overflow=hidden;rotatable=0;points=[[0,0.5],[1,0.5]];portConstraint=eastwest;whiteSpace=wrap;html=1;" parent="GPboHP2lbTyr-8-YOAkZ-5" vertex="1">
          <mxGeometry y="86" width="160" height="26" as="geometry" />
        </mxCell>
        <mxCell id="GPboHP2lbTyr-8-YOAkZ-9" value="Service" style="swimlane;fontStyle=1;align=center;verticalAlign=top;childLayout=stackLayout;horizontal=1;startSize=26;horizontalStack=0;resizeParent=1;resizeParentMax=0;resizeLast=0;collapsible=1;marginBottom=0;whiteSpace=wrap;html=1;" parent="1" vertex="1">
          <mxGeometry x="630" y="40" width="160" height="86" as="geometry" />
        </mxCell>
        <mxCell id="GPboHP2lbTyr-8-YOAkZ-10" value="+ name: String" style="text;strokeColor=none;fillColor=none;align=left;verticalAlign=top;spacingLeft=4;spacingRight=4;overflow=hidden;rotatable=0;points=[[0,0.5],[1,0.5]];portConstraint=eastwest;whiteSpace=wrap;html=1;" parent="GPboHP2lbTyr-8-YOAkZ-9" vertex="1">
          <mxGeometry y="26" width="160" height="26" as="geometry" />
        </mxCell>
        <mxCell id="anZbdZe2C1OOOSChNJ_c-10" value="+ price: Integer" style="text;strokeColor=none;fillColor=none;align=left;verticalAlign=top;spacingLeft=4;spacingRight=4;overflow=hidden;rotatable=0;points=[[0,0.5],[1,0.5]];portConstraint=eastwest;whiteSpace=wrap;html=1;" parent="GPboHP2lbTyr-8-YOAkZ-9" vertex="1">
          <mxGeometry y="52" width="160" height="26" as="geometry" />
        </mxCell>
        <mxCell id="GPboHP2lbTyr-8-YOAkZ-11" value="" style="line;strokeWidth=1;fillColor=none;align=left;verticalAlign=middle;spacingTop=-1;spacingLeft=3;spacingRight=3;rotatable=0;labelPosition=right;points=[];portConstraint=eastwest;strokeColor=inherit;" parent="GPboHP2lbTyr-8-YOAkZ-9" vertex="1">
          <mxGeometry y="78" width="160" height="8" as="geometry" />
        </mxCell>
        <mxCell id="GPboHP2lbTyr-8-YOAkZ-13" value="Bonus" style="swimlane;fontStyle=1;align=center;verticalAlign=top;childLayout=stackLayout;horizontal=1;startSize=26;horizontalStack=0;resizeParent=1;resizeParentMax=0;resizeLast=0;collapsible=1;marginBottom=0;whiteSpace=wrap;html=1;" parent="1" vertex="1">
          <mxGeometry x="240" y="180" width="160" height="86" as="geometry" />
        </mxCell>
        <mxCell id="GPboHP2lbTyr-8-YOAkZ-14" value="+ name: String" style="text;strokeColor=none;fillColor=none;align=left;verticalAlign=top;spacingLeft=4;spacingRight=4;overflow=hidden;rotatable=0;points=[[0,0.5],[1,0.5]];portConstraint=eastwest;whiteSpace=wrap;html=1;" parent="GPboHP2lbTyr-8-YOAkZ-13" vertex="1">
          <mxGeometry y="26" width="160" height="26" as="geometry" />
        </mxCell>
        <mxCell id="GPboHP2lbTyr-8-YOAkZ-21" value="+ discount: Integer" style="text;strokeColor=none;fillColor=none;align=left;verticalAlign=top;spacingLeft=4;spacingRight=4;overflow=hidden;rotatable=0;points=[[0,0.5],[1,0.5]];portConstraint=eastwest;whiteSpace=wrap;html=1;" parent="GPboHP2lbTyr-8-YOAkZ-13" vertex="1">
          <mxGeometry y="52" width="160" height="26" as="geometry" />
        </mxCell>
        <mxCell id="GPboHP2lbTyr-8-YOAkZ-15" value="" style="line;strokeWidth=1;fillColor=none;align=left;verticalAlign=middle;spacingTop=-1;spacingLeft=3;spacingRight=3;rotatable=0;labelPosition=right;points=[];portConstraint=eastwest;strokeColor=inherit;" parent="GPboHP2lbTyr-8-YOAkZ-13" vertex="1">
          <mxGeometry y="78" width="160" height="8" as="geometry" />
        </mxCell>
        <mxCell id="GPboHP2lbTyr-8-YOAkZ-17" value="Visit" style="swimlane;fontStyle=1;align=center;verticalAlign=top;childLayout=stackLayout;horizontal=1;startSize=26;horizontalStack=0;resizeParent=1;resizeParentMax=0;resizeLast=0;collapsible=1;marginBottom=0;whiteSpace=wrap;html=1;" parent="1" vertex="1">
          <mxGeometry x="330" y="336" width="180" height="90" as="geometry" />
        </mxCell>
        <mxCell id="GPboHP2lbTyr-8-YOAkZ-18" value="+ date: String" style="text;strokeColor=none;fillColor=none;align=left;verticalAlign=top;spacingLeft=4;spacingRight=4;overflow=hidden;rotatable=0;points=[[0,0.5],[1,0.5]];portConstraint=eastwest;whiteSpace=wrap;html=1;" parent="GPboHP2lbTyr-8-YOAkZ-17" vertex="1">
          <mxGeometry y="26" width="180" height="26" as="geometry" />
        </mxCell>
        <mxCell id="GPboHP2lbTyr-8-YOAkZ-19" value="" style="line;strokeWidth=1;fillColor=none;align=left;verticalAlign=middle;spacingTop=-1;spacingLeft=3;spacingRight=3;rotatable=0;labelPosition=right;points=[];portConstraint=eastwest;strokeColor=inherit;" parent="GPboHP2lbTyr-8-YOAkZ-17" vertex="1">
          <mxGeometry y="52" width="180" height="8" as="geometry" />
        </mxCell>
        <mxCell id="GPboHP2lbTyr-8-YOAkZ-20" value="+ CreateAOS(service: Service)" style="text;strokeColor=none;fillColor=none;align=left;verticalAlign=top;spacingLeft=4;spacingRight=4;overflow=hidden;rotatable=0;points=[[0,0.5],[1,0.5]];portConstraint=eastwest;whiteSpace=wrap;html=1;" parent="GPboHP2lbTyr-8-YOAkZ-17" vertex="1">
          <mxGeometry y="60" width="180" height="30" as="geometry" />
        </mxCell>
        <mxCell id="GPboHP2lbTyr-8-YOAkZ-22" value="Staff" style="swimlane;fontStyle=1;align=center;verticalAlign=top;childLayout=stackLayout;horizontal=1;startSize=26;horizontalStack=0;resizeParent=1;resizeParentMax=0;resizeLast=0;collapsible=1;marginBottom=0;whiteSpace=wrap;html=1;" parent="1" vertex="1">
          <mxGeometry x="-150" y="510" width="210" height="138" as="geometry" />
        </mxCell>
        <mxCell id="GPboHP2lbTyr-8-YOAkZ-23" value="+ position: String" style="text;strokeColor=none;fillColor=none;align=left;verticalAlign=top;spacingLeft=4;spacingRight=4;overflow=hidden;rotatable=0;points=[[0,0.5],[1,0.5]];portConstraint=eastwest;whiteSpace=wrap;html=1;" parent="GPboHP2lbTyr-8-YOAkZ-22" vertex="1">
          <mxGeometry y="26" width="210" height="26" as="geometry" />
        </mxCell>
        <mxCell id="GPboHP2lbTyr-8-YOAkZ-25" value="+ isFree: Boolean" style="text;strokeColor=none;fillColor=none;align=left;verticalAlign=top;spacingLeft=4;spacingRight=4;overflow=hidden;rotatable=0;points=[[0,0.5],[1,0.5]];portConstraint=eastwest;whiteSpace=wrap;html=1;" parent="GPboHP2lbTyr-8-YOAkZ-22" vertex="1">
          <mxGeometry y="52" width="210" height="26" as="geometry" />
        </mxCell>
        <mxCell id="GPboHP2lbTyr-8-YOAkZ-24" value="" style="line;strokeWidth=1;fillColor=none;align=left;verticalAlign=middle;spacingTop=-1;spacingLeft=3;spacingRight=3;rotatable=0;labelPosition=right;points=[];portConstraint=eastwest;strokeColor=inherit;" parent="GPboHP2lbTyr-8-YOAkZ-22" vertex="1">
          <mxGeometry y="78" width="210" height="8" as="geometry" />
        </mxCell>
        <mxCell id="i7V-vdGSqdcXj_ipHPfb-1" value="+ JoinClub(club: Club&lt;span style=&quot;background-color: initial;&quot;&gt;)&lt;/span&gt;" style="text;strokeColor=none;fillColor=none;align=left;verticalAlign=top;spacingLeft=4;spacingRight=4;overflow=hidden;rotatable=0;points=[[0,0.5],[1,0.5]];portConstraint=eastwest;whiteSpace=wrap;html=1;" parent="GPboHP2lbTyr-8-YOAkZ-22" vertex="1">
          <mxGeometry y="86" width="210" height="26" as="geometry" />
        </mxCell>
        <mxCell id="ENwma4647ypsgETE-1rp-1" value="+ ProvideService(aos: ActOfService&lt;span style=&quot;background-color: initial;&quot;&gt;)&lt;/span&gt;" style="text;strokeColor=none;fillColor=none;align=left;verticalAlign=top;spacingLeft=4;spacingRight=4;overflow=hidden;rotatable=0;points=[[0,0.5],[1,0.5]];portConstraint=eastwest;whiteSpace=wrap;html=1;" parent="GPboHP2lbTyr-8-YOAkZ-22" vertex="1">
          <mxGeometry y="112" width="210" height="26" as="geometry" />
        </mxCell>
        <mxCell id="GPboHP2lbTyr-8-YOAkZ-26" value="ActOfService" style="swimlane;fontStyle=1;align=center;verticalAlign=top;childLayout=stackLayout;horizontal=1;startSize=26;horizontalStack=0;resizeParent=1;resizeParentMax=0;resizeLast=0;collapsible=1;marginBottom=0;whiteSpace=wrap;html=1;" parent="1" vertex="1">
          <mxGeometry x="630" y="330" width="160" height="112" as="geometry" />
        </mxCell>
        <mxCell id="GPboHP2lbTyr-8-YOAkZ-27" value="+ datetime: String" style="text;strokeColor=none;fillColor=none;align=left;verticalAlign=top;spacingLeft=4;spacingRight=4;overflow=hidden;rotatable=0;points=[[0,0.5],[1,0.5]];portConstraint=eastwest;whiteSpace=wrap;html=1;" parent="GPboHP2lbTyr-8-YOAkZ-26" vertex="1">
          <mxGeometry y="26" width="160" height="26" as="geometry" />
        </mxCell>
        <mxCell id="Ch8ZuoO2aM_oXt6lmBcs-1" value="+ price: Integer" style="text;strokeColor=none;fillColor=none;align=left;verticalAlign=top;spacingLeft=4;spacingRight=4;overflow=hidden;rotatable=0;points=[[0,0.5],[1,0.5]];portConstraint=eastwest;whiteSpace=wrap;html=1;" parent="GPboHP2lbTyr-8-YOAkZ-26" vertex="1">
          <mxGeometry y="52" width="160" height="26" as="geometry" />
        </mxCell>
        <mxCell id="GPboHP2lbTyr-8-YOAkZ-28" value="" style="line;strokeWidth=1;fillColor=none;align=left;verticalAlign=middle;spacingTop=-1;spacingLeft=3;spacingRight=3;rotatable=0;labelPosition=right;points=[];portConstraint=eastwest;strokeColor=inherit;" parent="GPboHP2lbTyr-8-YOAkZ-26" vertex="1">
          <mxGeometry y="78" width="160" height="8" as="geometry" />
        </mxCell>
        <mxCell id="GPboHP2lbTyr-8-YOAkZ-29" value="- AssignStaff()" style="text;strokeColor=none;fillColor=none;align=left;verticalAlign=top;spacingLeft=4;spacingRight=4;overflow=hidden;rotatable=0;points=[[0,0.5],[1,0.5]];portConstraint=eastwest;whiteSpace=wrap;html=1;" parent="GPboHP2lbTyr-8-YOAkZ-26" vertex="1">
          <mxGeometry y="86" width="160" height="26" as="geometry" />
        </mxCell>
        <mxCell id="anZbdZe2C1OOOSChNJ_c-1" value="" style="endArrow=diamondThin;endFill=1;endSize=24;html=1;rounded=0;entryX=1;entryY=0.5;entryDx=0;entryDy=0;exitX=0;exitY=0.5;exitDx=0;exitDy=0;" parent="1" source="GPboHP2lbTyr-8-YOAkZ-10" target="GPboHP2lbTyr-8-YOAkZ-6" edge="1">
          <mxGeometry width="160" relative="1" as="geometry">
            <mxPoint x="330" y="190" as="sourcePoint" />
            <mxPoint x="490" y="190" as="targetPoint" />
          </mxGeometry>
        </mxCell>
        <mxCell id="PfbDEPmkfzZQk4ngDVxS-3" value="+serviceList" style="edgeLabel;html=1;align=center;verticalAlign=middle;resizable=0;points=[];" parent="anZbdZe2C1OOOSChNJ_c-1" vertex="1" connectable="0">
          <mxGeometry x="-0.7503" y="2" relative="1" as="geometry">
            <mxPoint x="14" y="-15" as="offset" />
          </mxGeometry>
        </mxCell>
        <mxCell id="anZbdZe2C1OOOSChNJ_c-2" value="" style="endArrow=diamondThin;endFill=1;endSize=24;html=1;rounded=0;exitX=0;exitY=0;exitDx=0;exitDy=0;entryX=1.01;entryY=0.998;entryDx=0;entryDy=0;entryPerimeter=0;" parent="1" source="GPboHP2lbTyr-8-YOAkZ-13" target="EEQmg-H-sVEe2iOd3B1p-8" edge="1">
          <mxGeometry width="160" relative="1" as="geometry">
            <mxPoint x="330" y="290" as="sourcePoint" />
            <mxPoint x="240" y="140" as="targetPoint" />
          </mxGeometry>
        </mxCell>
        <mxCell id="PfbDEPmkfzZQk4ngDVxS-2" value="+ bonusList" style="edgeLabel;html=1;align=center;verticalAlign=middle;resizable=0;points=[];" parent="anZbdZe2C1OOOSChNJ_c-2" vertex="1" connectable="0">
          <mxGeometry x="-0.5393" relative="1" as="geometry">
            <mxPoint x="39" y="-4" as="offset" />
          </mxGeometry>
        </mxCell>
        <mxCell id="anZbdZe2C1OOOSChNJ_c-5" value="" style="endArrow=diamondThin;endFill=0;endSize=24;html=1;rounded=0;exitX=0;exitY=0.5;exitDx=0;exitDy=0;entryX=1;entryY=0.231;entryDx=0;entryDy=0;entryPerimeter=0;" parent="1" edge="1">
          <mxGeometry width="160" relative="1" as="geometry">
            <mxPoint x="330" y="377.5" as="sourcePoint" />
            <mxPoint x="210" y="378.506" as="targetPoint" />
          </mxGeometry>
        </mxCell>
        <mxCell id="PfbDEPmkfzZQk4ngDVxS-6" value="+ visitHistory" style="edgeLabel;html=1;align=center;verticalAlign=middle;resizable=0;points=[];" parent="anZbdZe2C1OOOSChNJ_c-5" vertex="1" connectable="0">
          <mxGeometry x="-0.7913" relative="1" as="geometry">
            <mxPoint x="-28" y="-9" as="offset" />
          </mxGeometry>
        </mxCell>
        <mxCell id="anZbdZe2C1OOOSChNJ_c-6" value="" style="endArrow=diamondThin;endFill=1;endSize=24;html=1;rounded=0;entryX=1;entryY=0.5;entryDx=0;entryDy=0;exitX=0;exitY=0.5;exitDx=0;exitDy=0;" parent="1" edge="1">
          <mxGeometry width="160" relative="1" as="geometry">
            <mxPoint x="630" y="370" as="sourcePoint" />
            <mxPoint x="510" y="370" as="targetPoint" />
          </mxGeometry>
        </mxCell>
        <mxCell id="PfbDEPmkfzZQk4ngDVxS-7" value="+ orderHistory" style="edgeLabel;html=1;align=center;verticalAlign=middle;resizable=0;points=[];" parent="anZbdZe2C1OOOSChNJ_c-6" vertex="1" connectable="0">
          <mxGeometry x="-0.5405" y="-2" relative="1" as="geometry">
            <mxPoint x="-12" y="-11" as="offset" />
          </mxGeometry>
        </mxCell>
        <mxCell id="anZbdZe2C1OOOSChNJ_c-7" value="" style="endArrow=open;endFill=1;endSize=12;html=1;rounded=0;exitX=1;exitY=0;exitDx=0;exitDy=0;entryX=0;entryY=1;entryDx=0;entryDy=0;" parent="1" source="GPboHP2lbTyr-8-YOAkZ-1" target="GPboHP2lbTyr-8-YOAkZ-13" edge="1">
          <mxGeometry width="160" relative="1" as="geometry">
            <mxPoint x="480" y="190" as="sourcePoint" />
            <mxPoint x="238.8800000000001" y="293.1959999999999" as="targetPoint" />
          </mxGeometry>
        </mxCell>
        <mxCell id="pH0ACXmLVvJExBdWY9iV-2" value="+bonus" style="edgeLabel;html=1;align=center;verticalAlign=middle;resizable=0;points=[];" parent="anZbdZe2C1OOOSChNJ_c-7" vertex="1" connectable="0">
          <mxGeometry x="-0.4842" y="-1" relative="1" as="geometry">
            <mxPoint x="-8" y="6" as="offset" />
          </mxGeometry>
        </mxCell>
        <mxCell id="anZbdZe2C1OOOSChNJ_c-8" value="" style="endArrow=open;endFill=1;endSize=12;html=1;rounded=0;entryX=0.5;entryY=1;entryDx=0;entryDy=0;exitX=0.5;exitY=0;exitDx=0;exitDy=0;" parent="1" source="GPboHP2lbTyr-8-YOAkZ-26" target="GPboHP2lbTyr-8-YOAkZ-9" edge="1">
          <mxGeometry width="160" relative="1" as="geometry">
            <mxPoint x="580" y="250" as="sourcePoint" />
            <mxPoint x="710" y="150.38799999999992" as="targetPoint" />
          </mxGeometry>
        </mxCell>
        <mxCell id="pH0ACXmLVvJExBdWY9iV-1" value="+ service" style="edgeLabel;html=1;align=center;verticalAlign=middle;resizable=0;points=[];" parent="anZbdZe2C1OOOSChNJ_c-8" vertex="1" connectable="0">
          <mxGeometry x="-0.8206" y="-1" relative="1" as="geometry">
            <mxPoint x="29" y="1" as="offset" />
          </mxGeometry>
        </mxCell>
        <mxCell id="anZbdZe2C1OOOSChNJ_c-9" value="" style="endArrow=open;endFill=1;endSize=12;html=1;rounded=0;edgeStyle=orthogonalEdgeStyle;entryX=1;entryY=0.5;entryDx=0;entryDy=0;" parent="1" target="GPboHP2lbTyr-8-YOAkZ-25" edge="1">
          <mxGeometry width="160" relative="1" as="geometry">
            <mxPoint x="680" y="444" as="sourcePoint" />
            <mxPoint x="160" y="560" as="targetPoint" />
            <Array as="points">
              <mxPoint x="680" y="444" />
              <mxPoint x="680" y="575" />
            </Array>
          </mxGeometry>
        </mxCell>
        <mxCell id="pH0ACXmLVvJExBdWY9iV-3" value="+ staff" style="edgeLabel;html=1;align=center;verticalAlign=middle;resizable=0;points=[];" parent="anZbdZe2C1OOOSChNJ_c-9" vertex="1" connectable="0">
          <mxGeometry x="-0.9255" relative="1" as="geometry">
            <mxPoint x="-31" y="-13" as="offset" />
          </mxGeometry>
        </mxCell>
        <mxCell id="HA3kNhzcuAA2cJxyz726-1" value="&lt;i&gt;Person&lt;/i&gt;" style="swimlane;fontStyle=1;align=center;verticalAlign=top;childLayout=stackLayout;horizontal=1;startSize=26;horizontalStack=0;resizeParent=1;resizeParentMax=0;resizeLast=0;collapsible=1;marginBottom=0;whiteSpace=wrap;html=1;" parent="1" vertex="1">
          <mxGeometry x="-380" y="380" width="160" height="86" as="geometry" />
        </mxCell>
        <mxCell id="HA3kNhzcuAA2cJxyz726-2" value="+ name: String" style="text;strokeColor=none;fillColor=none;align=left;verticalAlign=top;spacingLeft=4;spacingRight=4;overflow=hidden;rotatable=0;points=[[0,0.5],[1,0.5]];portConstraint=eastwest;whiteSpace=wrap;html=1;" parent="HA3kNhzcuAA2cJxyz726-1" vertex="1">
          <mxGeometry y="26" width="160" height="26" as="geometry" />
        </mxCell>
        <mxCell id="HA3kNhzcuAA2cJxyz726-13" value="" style="line;strokeWidth=1;fillColor=none;align=left;verticalAlign=middle;spacingTop=-1;spacingLeft=3;spacingRight=3;rotatable=0;labelPosition=right;points=[];portConstraint=eastwest;strokeColor=inherit;" parent="HA3kNhzcuAA2cJxyz726-1" vertex="1">
          <mxGeometry y="52" width="160" height="8" as="geometry" />
        </mxCell>
        <mxCell id="HA3kNhzcuAA2cJxyz726-4" value="&lt;i&gt;+ JoinClub(club: Club&lt;span style=&quot;background-color: initial;&quot;&gt;)&lt;/span&gt;&lt;/i&gt;" style="text;strokeColor=none;fillColor=none;align=left;verticalAlign=top;spacingLeft=4;spacingRight=4;overflow=hidden;rotatable=0;points=[[0,0.5],[1,0.5]];portConstraint=eastwest;whiteSpace=wrap;html=1;" parent="HA3kNhzcuAA2cJxyz726-1" vertex="1">
          <mxGeometry y="60" width="160" height="26" as="geometry" />
        </mxCell>
        <mxCell id="EEQmg-H-sVEe2iOd3B1p-2" value="" style="endArrow=diamondThin;endFill=0;endSize=24;html=1;rounded=0;exitX=0.5;exitY=0;exitDx=0;exitDy=0;entryX=0.01;entryY=1.106;entryDx=0;entryDy=0;entryPerimeter=0;jumpStyle=arc;" parent="1" source="GPboHP2lbTyr-8-YOAkZ-22" target="EEQmg-H-sVEe2iOd3B1p-8" edge="1">
          <mxGeometry width="160" relative="1" as="geometry">
            <mxPoint x="-160" y="420" as="sourcePoint" />
            <mxPoint y="220" as="targetPoint" />
          </mxGeometry>
        </mxCell>
        <mxCell id="PfbDEPmkfzZQk4ngDVxS-5" value="+ staffList" style="edgeLabel;html=1;align=center;verticalAlign=middle;resizable=0;points=[];" parent="EEQmg-H-sVEe2iOd3B1p-2" vertex="1" connectable="0">
          <mxGeometry x="-0.944" relative="1" as="geometry">
            <mxPoint x="-27" as="offset" />
          </mxGeometry>
        </mxCell>
        <mxCell id="EEQmg-H-sVEe2iOd3B1p-6" value="" style="endArrow=block;endSize=16;endFill=0;html=1;rounded=0;entryX=1;entryY=0.5;entryDx=0;entryDy=0;edgeStyle=orthogonalEdgeStyle;jumpStyle=arc;" parent="1" target="HA3kNhzcuAA2cJxyz726-2" edge="1">
          <mxGeometry width="160" relative="1" as="geometry">
            <mxPoint x="20" y="370" as="sourcePoint" />
            <mxPoint x="190" y="420" as="targetPoint" />
            <Array as="points">
              <mxPoint x="-170" y="369" />
              <mxPoint x="-170" y="419" />
            </Array>
          </mxGeometry>
        </mxCell>
        <mxCell id="EEQmg-H-sVEe2iOd3B1p-7" value="" style="endArrow=none;endSize=16;endFill=0;html=1;rounded=0;exitX=0;exitY=0.5;exitDx=0;exitDy=0;edgeStyle=orthogonalEdgeStyle;" parent="1" source="GPboHP2lbTyr-8-YOAkZ-23" edge="1">
          <mxGeometry width="160" relative="1" as="geometry">
            <mxPoint x="-400" y="530" as="sourcePoint" />
            <mxPoint x="-170" y="420" as="targetPoint" />
          </mxGeometry>
        </mxCell>
        <mxCell id="CkP7j7leaXPX4D-TEup--1" value="" style="endArrow=open;endSize=12;dashed=1;html=1;rounded=0;entryX=0;entryY=0.5;entryDx=0;entryDy=0;exitX=1.022;exitY=0.129;exitDx=0;exitDy=0;exitPerimeter=0;edgeStyle=orthogonalEdgeStyle;jumpStyle=arc;" parent="1" source="GPboHP2lbTyr-8-YOAkZ-1" target="anZbdZe2C1OOOSChNJ_c-10" edge="1">
          <mxGeometry width="160" relative="1" as="geometry">
            <mxPoint x="644" y="595" as="sourcePoint" />
            <mxPoint x="414" y="510" as="targetPoint" />
            <Array as="points">
              <mxPoint x="214" y="344" />
              <mxPoint x="300" y="344" />
              <mxPoint x="300" y="290" />
              <mxPoint x="510" y="290" />
              <mxPoint x="510" y="105" />
            </Array>
          </mxGeometry>
        </mxCell>
        <mxCell id="2oeXgOVVi0nJu66VPsvW-2" value="" style="endArrow=diamondThin;endFill=0;endSize=24;html=1;rounded=0;entryX=0.491;entryY=1.049;entryDx=0;entryDy=0;entryPerimeter=0;exitX=0.525;exitY=0.003;exitDx=0;exitDy=0;exitPerimeter=0;" parent="1" edge="1">
          <mxGeometry width="160" relative="1" as="geometry">
            <mxPoint x="120.59" y="330" as="sourcePoint" />
            <mxPoint x="119.4000000000004" y="152.914" as="targetPoint" />
          </mxGeometry>
        </mxCell>
        <mxCell id="PfbDEPmkfzZQk4ngDVxS-4" value="+ memberList" style="edgeLabel;html=1;align=center;verticalAlign=middle;resizable=0;points=[];" parent="2oeXgOVVi0nJu66VPsvW-2" vertex="1" connectable="0">
          <mxGeometry x="-0.6707" y="-1" relative="1" as="geometry">
            <mxPoint x="-41" y="19" as="offset" />
          </mxGeometry>
        </mxCell>
        <mxCell id="7EXKGnWc6NJZDmOUesxT-1" value="" style="endArrow=open;endFill=1;endSize=12;html=1;rounded=0;entryX=0;entryY=1.308;entryDx=0;entryDy=0;entryPerimeter=0;exitX=0.543;exitY=-0.003;exitDx=0;exitDy=0;exitPerimeter=0;edgeStyle=orthogonalEdgeStyle;" parent="1" source="HA3kNhzcuAA2cJxyz726-1" target="GPboHP2lbTyr-8-YOAkZ-6" edge="1">
          <mxGeometry width="160" relative="1" as="geometry">
            <mxPoint x="-307.34000000000026" y="380" as="sourcePoint" />
            <mxPoint x="-310.0000000000001" y="205.09400000000005" as="targetPoint" />
          </mxGeometry>
        </mxCell>
        <mxCell id="7EXKGnWc6NJZDmOUesxT-2" value="+ club" style="edgeLabel;html=1;align=center;verticalAlign=middle;resizable=0;points=[];" parent="7EXKGnWc6NJZDmOUesxT-1" vertex="1" connectable="0">
          <mxGeometry x="-0.7528" y="3" relative="1" as="geometry">
            <mxPoint x="-24" y="66" as="offset" />
          </mxGeometry>
        </mxCell>
        <mxCell id="aH_zjj3CdHdmyH7ugiK--1" value="" style="endArrow=open;endSize=12;html=1;rounded=0;entryX=1;entryY=0.5;entryDx=0;entryDy=0;" parent="1" source="GPboHP2lbTyr-8-YOAkZ-20" edge="1">
          <mxGeometry width="160" relative="1" as="geometry">
            <mxPoint x="326.94000000000005" y="412.1" as="sourcePoint" />
            <mxPoint x="210" y="411.5" as="targetPoint" />
          </mxGeometry>
        </mxCell>
        <mxCell id="BhBCgiMNUSlYjAgra9hD-2" value="+ member" style="edgeLabel;html=1;align=center;verticalAlign=middle;resizable=0;points=[];" parent="aH_zjj3CdHdmyH7ugiK--1" vertex="1" connectable="0">
          <mxGeometry x="-0.163" relative="1" as="geometry">
            <mxPoint x="12" y="-8" as="offset" />
          </mxGeometry>
        </mxCell>
        <mxCell id="aH_zjj3CdHdmyH7ugiK--2" value="" style="endArrow=open;endSize=12;dashed=1;html=1;rounded=0;edgeStyle=orthogonalEdgeStyle;jumpStyle=arc;" parent="1" edge="1">
          <mxGeometry width="160" relative="1" as="geometry">
            <mxPoint x="510" y="340" as="sourcePoint" />
            <mxPoint x="646.58" y="126" as="targetPoint" />
            <Array as="points">
              <mxPoint x="510" y="338" />
              <mxPoint x="570" y="338" />
              <mxPoint x="570" y="310" />
              <mxPoint x="647" y="310" />
            </Array>
          </mxGeometry>
        </mxCell>
        <mxCell id="BhBCgiMNUSlYjAgra9hD-3" value="+ visit" style="endArrow=open;endSize=12;html=1;rounded=0;entryX=1;entryY=0.5;entryDx=0;entryDy=0;" parent="1" target="GPboHP2lbTyr-8-YOAkZ-20" edge="1">
          <mxGeometry x="-0.6319" y="-10" width="160" relative="1" as="geometry">
            <mxPoint x="630" y="411" as="sourcePoint" />
            <mxPoint x="520" y="410" as="targetPoint" />
            <mxPoint as="offset" />
          </mxGeometry>
        </mxCell>
        <mxCell id="9Gxh_cAGedS7gMlLdsky-1" value="" style="endArrow=open;endSize=12;dashed=1;html=1;rounded=0;edgeStyle=orthogonalEdgeStyle;entryX=0.64;entryY=1.138;entryDx=0;entryDy=0;entryPerimeter=0;" parent="1" target="GPboHP2lbTyr-8-YOAkZ-29" edge="1">
          <mxGeometry x="-0.0002" width="160" relative="1" as="geometry">
            <mxPoint x="60" y="620" as="sourcePoint" />
            <mxPoint x="760" y="450" as="targetPoint" />
            <Array as="points">
              <mxPoint x="732" y="620" />
            </Array>
            <mxPoint as="offset" />
          </mxGeometry>
        </mxCell>
        <mxCell id="_4keXVCdFgjx6_CQQ-8M-5" style="rounded=0;orthogonalLoop=1;jettySize=auto;html=1;endArrow=none;endFill=0;exitX=0.361;exitY=1.045;exitDx=0;exitDy=0;exitPerimeter=0;" parent="1" source="_QbbnuBDuV8wZZyyUriw-1" edge="1">
          <mxGeometry relative="1" as="geometry">
            <mxPoint x="-170" y="370" as="targetPoint" />
          </mxGeometry>
        </mxCell>
        <mxCell id="_4keXVCdFgjx6_CQQ-8M-7" style="rounded=0;orthogonalLoop=1;jettySize=auto;html=1;entryX=0;entryY=0.5;entryDx=0;entryDy=0;dashed=1;endArrow=open;endFill=0;endSize=12;jumpStyle=arc;" parent="1" source="_4keXVCdFgjx6_CQQ-8M-1" target="GPboHP2lbTyr-8-YOAkZ-21" edge="1">
          <mxGeometry relative="1" as="geometry">
            <mxPoint x="209.99999999999977" y="243" as="targetPoint" />
          </mxGeometry>
        </mxCell>
        <mxCell id="_4keXVCdFgjx6_CQQ-8M-1" value="Administrator" style="swimlane;fontStyle=1;align=center;verticalAlign=top;childLayout=stackLayout;horizontal=1;startSize=26;horizontalStack=0;resizeParent=1;resizeParentMax=0;resizeLast=0;collapsible=1;marginBottom=0;whiteSpace=wrap;html=1;" parent="1" vertex="1">
          <mxGeometry x="-250" y="200" width="220" height="112" as="geometry" />
        </mxCell>
        <mxCell id="_4keXVCdFgjx6_CQQ-8M-3" value="" style="line;strokeWidth=1;fillColor=none;align=left;verticalAlign=middle;spacingTop=-1;spacingLeft=3;spacingRight=3;rotatable=0;labelPosition=right;points=[];portConstraint=eastwest;strokeColor=inherit;" parent="_4keXVCdFgjx6_CQQ-8M-1" vertex="1">
          <mxGeometry y="26" width="220" height="8" as="geometry" />
        </mxCell>
        <mxCell id="_4keXVCdFgjx6_CQQ-8M-6" value="+ JoinClub(club: Club&lt;span style=&quot;background-color: initial;&quot;&gt;)&lt;/span&gt;" style="text;strokeColor=none;fillColor=none;align=left;verticalAlign=top;spacingLeft=4;spacingRight=4;overflow=hidden;rotatable=0;points=[[0,0.5],[1,0.5]];portConstraint=eastwest;whiteSpace=wrap;html=1;" parent="_4keXVCdFgjx6_CQQ-8M-1" vertex="1">
          <mxGeometry y="34" width="220" height="26" as="geometry" />
        </mxCell>
        <mxCell id="wYMSdKGh9l-tJPNO8r0--3" value="+ AssignBonus(m: Member, b: Bonus&lt;span style=&quot;background-color: initial;&quot;&gt;)&lt;/span&gt;" style="text;strokeColor=none;fillColor=none;align=left;verticalAlign=top;spacingLeft=4;spacingRight=4;overflow=hidden;rotatable=0;points=[[0,0.5],[1,0.5]];portConstraint=eastwest;whiteSpace=wrap;html=1;" parent="_4keXVCdFgjx6_CQQ-8M-1" vertex="1">
          <mxGeometry y="60" width="220" height="26" as="geometry" />
        </mxCell>
        <mxCell id="_QbbnuBDuV8wZZyyUriw-1" value="+ Administrate(args [])" style="text;strokeColor=none;fillColor=none;align=left;verticalAlign=top;spacingLeft=4;spacingRight=4;overflow=hidden;rotatable=0;points=[[0,0.5],[1,0.5]];portConstraint=eastwest;whiteSpace=wrap;html=1;" vertex="1" parent="_4keXVCdFgjx6_CQQ-8M-1">
          <mxGeometry y="86" width="220" height="26" as="geometry" />
        </mxCell>
        <mxCell id="_4keXVCdFgjx6_CQQ-8M-9" style="rounded=0;orthogonalLoop=1;jettySize=auto;html=1;entryX=0;entryY=0;entryDx=0;entryDy=0;dashed=1;endArrow=open;endFill=0;endSize=12;jumpStyle=arc;" parent="1" target="GPboHP2lbTyr-8-YOAkZ-1" edge="1">
          <mxGeometry relative="1" as="geometry">
            <mxPoint x="240" y="287" as="targetPoint" />
            <mxPoint x="-30" y="286" as="sourcePoint" />
          </mxGeometry>
        </mxCell>
      </root>
    </mxGraphModel>
  </diagram>
  <diagram id="Uu84yaF7SiBh3UL0ipf0" name="Диаграмма последовательностей">
    <mxGraphModel dx="1050" dy="555" grid="1" gridSize="10" guides="1" tooltips="1" connect="1" arrows="1" fold="1" page="1" pageScale="1" pageWidth="827" pageHeight="1169" math="0" shadow="0">
      <root>
        <mxCell id="0" />
        <mxCell id="1" parent="0" />
        <mxCell id="Nn5P1-VjUoj86el8aoE7-1" value="&lt;div style=&quot;text-align: left;&quot;&gt;&lt;span style=&quot;background-color: initial;&quot;&gt;sd Member.orderService(service: Service)&lt;/span&gt;&lt;/div&gt;" style="shape=umlFrame;whiteSpace=wrap;html=1;pointerEvents=0;width=251;height=20;" parent="1" vertex="1">
          <mxGeometry x="59" y="60" width="710" height="580" as="geometry" />
        </mxCell>
        <mxCell id="zBqI4GERUc76_MchgBii-1" value="m:Member" style="shape=umlLifeline;perimeter=lifelinePerimeter;whiteSpace=wrap;html=1;container=1;dropTarget=0;collapsible=0;recursiveResize=0;outlineConnect=0;portConstraint=eastwest;newEdgeStyle={&quot;curved&quot;:0,&quot;rounded&quot;:0};" parent="1" vertex="1">
          <mxGeometry x="142.43" y="90" width="100" height="550" as="geometry" />
        </mxCell>
        <mxCell id="zBqI4GERUc76_MchgBii-5" value="" style="html=1;points=[[0,0,0,0,5],[0,1,0,0,-5],[1,0,0,0,5],[1,1,0,0,-5]];perimeter=orthogonalPerimeter;outlineConnect=0;targetShapes=umlLifeline;portConstraint=eastwest;newEdgeStyle={&quot;curved&quot;:0,&quot;rounded&quot;:0};" parent="1" vertex="1">
          <mxGeometry x="187.43" y="166" width="10" height="444" as="geometry" />
        </mxCell>
        <mxCell id="zBqI4GERUc76_MchgBii-6" value="&lt;div style=&quot;text-align: left;&quot;&gt;OrderService(service: Service&lt;span style=&quot;font-size: 12px; text-wrap: wrap; background-color: rgb(251, 251, 251);&quot;&gt;)&lt;/span&gt;&lt;/div&gt;" style="html=1;verticalAlign=bottom;endArrow=block;rounded=0;entryX=0;entryY=0;entryDx=0;entryDy=5;exitX=0.001;exitY=0.181;exitDx=0;exitDy=0;exitPerimeter=0;edgeStyle=orthogonalEdgeStyle;" parent="1" source="Nn5P1-VjUoj86el8aoE7-1" edge="1">
          <mxGeometry x="-0.0667" y="11" relative="1" as="geometry">
            <mxPoint x="62.430000000000064" y="164.60000000000002" as="sourcePoint" />
            <Array as="points">
              <mxPoint x="60" y="166" />
            </Array>
            <mxPoint as="offset" />
            <mxPoint x="187.43" y="166.0000000000016" as="targetPoint" />
          </mxGeometry>
        </mxCell>
        <mxCell id="zBqI4GERUc76_MchgBii-7" value="" style="html=1;verticalAlign=bottom;endArrow=open;dashed=1;endSize=8;curved=0;rounded=0;exitX=0;exitY=1;exitDx=0;exitDy=-5;entryX=-0.003;entryY=0.954;entryDx=0;entryDy=0;entryPerimeter=0;" parent="1" edge="1">
          <mxGeometry relative="1" as="geometry">
            <mxPoint x="59.999999999999936" y="609.6999999999999" as="targetPoint" />
            <mxPoint x="187.43" y="609.9999999999985" as="sourcePoint" />
          </mxGeometry>
        </mxCell>
        <mxCell id="zuZBIdYk55FiT_qQVJVo-1" value="v:Visit" style="shape=umlLifeline;perimeter=lifelinePerimeter;whiteSpace=wrap;html=1;container=1;dropTarget=0;collapsible=0;recursiveResize=0;outlineConnect=0;portConstraint=eastwest;newEdgeStyle={&quot;curved&quot;:0,&quot;rounded&quot;:0};" parent="1" vertex="1">
          <mxGeometry x="312.43" y="90" width="100" height="550" as="geometry" />
        </mxCell>
        <mxCell id="9tejhx8fXGUxoE9mpUAl-3" value="" style="html=1;points=[[0,0,0,0,5],[0,1,0,0,-5],[1,0,0,0,5],[1,1,0,0,-5]];perimeter=orthogonalPerimeter;outlineConnect=0;targetShapes=umlLifeline;portConstraint=eastwest;newEdgeStyle={&quot;curved&quot;:0,&quot;rounded&quot;:0};" parent="zuZBIdYk55FiT_qQVJVo-1" vertex="1">
          <mxGeometry x="45" y="110" width="10" height="390" as="geometry" />
        </mxCell>
        <mxCell id="9tejhx8fXGUxoE9mpUAl-1" value="aos:ActOfService" style="shape=umlLifeline;perimeter=lifelinePerimeter;whiteSpace=wrap;html=1;container=1;dropTarget=0;collapsible=0;recursiveResize=0;outlineConnect=0;portConstraint=eastwest;newEdgeStyle={&quot;curved&quot;:0,&quot;rounded&quot;:0};" parent="1" vertex="1">
          <mxGeometry x="465.43" y="206" width="100" height="434" as="geometry" />
        </mxCell>
        <mxCell id="9tejhx8fXGUxoE9mpUAl-6" value="" style="html=1;points=[[0,0,0,0,5],[0,1,0,0,-5],[1,0,0,0,5],[1,1,0,0,-5]];perimeter=orthogonalPerimeter;outlineConnect=0;targetShapes=umlLifeline;portConstraint=eastwest;newEdgeStyle={&quot;curved&quot;:0,&quot;rounded&quot;:0};" parent="9tejhx8fXGUxoE9mpUAl-1" vertex="1">
          <mxGeometry x="45" y="40" width="10" height="330" as="geometry" />
        </mxCell>
        <mxCell id="9tejhx8fXGUxoE9mpUAl-11" value="price = price * (1- bonus)" style="html=1;verticalAlign=bottom;endArrow=block;curved=0;rounded=0;" parent="9tejhx8fXGUxoE9mpUAl-1" edge="1">
          <mxGeometry x="0.3333" y="-22" width="80" relative="1" as="geometry">
            <mxPoint x="55" y="80" as="sourcePoint" />
            <mxPoint x="55" y="100" as="targetPoint" />
            <Array as="points">
              <mxPoint x="87" y="80" />
              <mxPoint x="87" y="90" />
              <mxPoint x="87" y="100" />
            </Array>
            <mxPoint x="22" y="22" as="offset" />
          </mxGeometry>
        </mxCell>
        <mxCell id="LcAY8L-hlu0PN--Xb4eQ-3" value="" style="html=1;points=[[0,0,0,0,5],[0,1,0,0,-5],[1,0,0,0,5],[1,1,0,0,-5]];perimeter=orthogonalPerimeter;outlineConnect=0;targetShapes=umlLifeline;portConstraint=eastwest;newEdgeStyle={&quot;curved&quot;:0,&quot;rounded&quot;:0};" parent="9tejhx8fXGUxoE9mpUAl-1" vertex="1">
          <mxGeometry x="50" y="160" width="10" height="170" as="geometry" />
        </mxCell>
        <mxCell id="LcAY8L-hlu0PN--Xb4eQ-4" value="AssignStaff()" style="html=1;verticalAlign=bottom;endArrow=block;curved=0;rounded=0;" parent="9tejhx8fXGUxoE9mpUAl-1" edge="1">
          <mxGeometry x="0.3165" y="-40" width="80" relative="1" as="geometry">
            <mxPoint x="55.00000000000006" y="139.99999999999994" as="sourcePoint" />
            <mxPoint x="60.00000000000006" y="159.99999999999994" as="targetPoint" />
            <Array as="points">
              <mxPoint x="87" y="140" />
              <mxPoint x="87" y="160" />
            </Array>
            <mxPoint x="40" y="40" as="offset" />
          </mxGeometry>
        </mxCell>
        <mxCell id="9tejhx8fXGUxoE9mpUAl-2" value="s:Staff" style="shape=umlLifeline;perimeter=lifelinePerimeter;whiteSpace=wrap;html=1;container=1;dropTarget=0;collapsible=0;recursiveResize=0;outlineConnect=0;portConstraint=eastwest;newEdgeStyle={&quot;curved&quot;:0,&quot;rounded&quot;:0};" parent="1" vertex="1">
          <mxGeometry x="632.43" y="90" width="100" height="550" as="geometry" />
        </mxCell>
        <mxCell id="9tejhx8fXGUxoE9mpUAl-13" value="" style="html=1;points=[[0,0,0,0,5],[0,1,0,0,-5],[1,0,0,0,5],[1,1,0,0,-5]];perimeter=orthogonalPerimeter;outlineConnect=0;targetShapes=umlLifeline;portConstraint=eastwest;newEdgeStyle={&quot;curved&quot;:0,&quot;rounded&quot;:0};" parent="9tejhx8fXGUxoE9mpUAl-2" vertex="1">
          <mxGeometry x="45" y="377" width="10" height="40" as="geometry" />
        </mxCell>
        <mxCell id="9tejhx8fXGUxoE9mpUAl-4" value="&lt;div style=&quot;text-align: left;&quot;&gt;CreateAOS(service: Service&lt;span style=&quot;font-size: 12px; text-wrap: wrap; background-color: rgb(251, 251, 251);&quot;&gt;)&lt;/span&gt;&lt;/div&gt;" style="html=1;verticalAlign=bottom;endArrow=block;curved=0;rounded=0;" parent="1" edge="1">
          <mxGeometry width="80" relative="1" as="geometry">
            <mxPoint x="196.43" y="200" as="sourcePoint" />
            <mxPoint x="360.93000000000023" y="200" as="targetPoint" />
          </mxGeometry>
        </mxCell>
        <mxCell id="9tejhx8fXGUxoE9mpUAl-5" value="new(&lt;div&gt;visit: Visit,&lt;/div&gt;&lt;div&gt;&amp;nbsp;service: Service)&lt;/div&gt;" style="html=1;verticalAlign=bottom;endArrow=open;curved=0;rounded=0;dashed=1;endFill=0;" parent="1" edge="1">
          <mxGeometry width="80" relative="1" as="geometry">
            <mxPoint x="367.43" y="226" as="sourcePoint" />
            <mxPoint x="462.43" y="226" as="targetPoint" />
          </mxGeometry>
        </mxCell>
        <mxCell id="9tejhx8fXGUxoE9mpUAl-7" value="opt [bonus != 0]" style="shape=umlFrame;whiteSpace=wrap;html=1;pointerEvents=0;width=100;height=20;" parent="1" vertex="1">
          <mxGeometry x="412.43" y="266" width="230" height="60" as="geometry" />
        </mxCell>
        <mxCell id="9tejhx8fXGUxoE9mpUAl-9" value="loop [for each s in staffList]" style="shape=umlFrame;whiteSpace=wrap;html=1;pointerEvents=0;width=170;height=20;" parent="1" vertex="1">
          <mxGeometry x="412.43" y="387" width="300" height="140" as="geometry" />
        </mxCell>
        <mxCell id="9tejhx8fXGUxoE9mpUAl-12" value="break [isFree = true]" style="shape=umlFrame;whiteSpace=wrap;html=1;pointerEvents=0;width=130;height=20;" parent="1" vertex="1">
          <mxGeometry x="432.43" y="427" width="270" height="90" as="geometry" />
        </mxCell>
        <mxCell id="9tejhx8fXGUxoE9mpUAl-14" value="ProvideService(aos: ActOfService)" style="html=1;verticalAlign=bottom;endArrow=block;rounded=0;edgeStyle=orthogonalEdgeStyle;entryX=0;entryY=0;entryDx=0;entryDy=5;entryPerimeter=0;exitX=1.04;exitY=0.612;exitDx=0;exitDy=0;exitPerimeter=0;" parent="1" edge="1">
          <mxGeometry width="80" relative="1" as="geometry">
            <mxPoint x="525.83" y="467.28" as="sourcePoint" />
            <mxPoint x="677.43" y="467" as="targetPoint" />
          </mxGeometry>
        </mxCell>
        <mxCell id="LcAY8L-hlu0PN--Xb4eQ-2" value="" style="html=1;verticalAlign=bottom;endArrow=open;dashed=1;endSize=8;curved=0;rounded=0;" parent="1" edge="1">
          <mxGeometry relative="1" as="geometry">
            <mxPoint x="357.43" y="590" as="sourcePoint" />
            <mxPoint x="197.43" y="590" as="targetPoint" />
          </mxGeometry>
        </mxCell>
        <mxCell id="LcAY8L-hlu0PN--Xb4eQ-5" value="" style="html=1;verticalAlign=bottom;endArrow=open;dashed=1;endSize=8;rounded=0;edgeStyle=orthogonalEdgeStyle;" parent="1" edge="1">
          <mxGeometry relative="1" as="geometry">
            <mxPoint x="524.9399999999999" y="536" as="sourcePoint" />
            <mxPoint x="522.43" y="556" as="targetPoint" />
            <Array as="points">
              <mxPoint x="552.43" y="536" />
              <mxPoint x="552.43" y="556" />
            </Array>
          </mxGeometry>
        </mxCell>
        <mxCell id="LcAY8L-hlu0PN--Xb4eQ-6" value="" style="html=1;verticalAlign=bottom;endArrow=open;dashed=1;endSize=8;curved=0;rounded=0;entryX=1.146;entryY=0.784;entryDx=0;entryDy=0;entryPerimeter=0;" parent="1" edge="1">
          <mxGeometry relative="1" as="geometry">
            <mxPoint x="677.4300000000001" y="506.96000000000004" as="sourcePoint" />
            <mxPoint x="526.89" y="506.96000000000004" as="targetPoint" />
          </mxGeometry>
        </mxCell>
        <mxCell id="LcAY8L-hlu0PN--Xb4eQ-7" value="" style="html=1;verticalAlign=bottom;endArrow=open;dashed=1;endSize=8;curved=0;rounded=0;" parent="1" edge="1">
          <mxGeometry relative="1" as="geometry">
            <mxPoint x="510.43" y="576" as="sourcePoint" />
            <mxPoint x="367.43" y="576" as="targetPoint" />
          </mxGeometry>
        </mxCell>
        <mxCell id="d_UsGCD6Z9H_3SM3KAdA-2" value="sd созданиеУслуги" style="shape=umlFrame;whiteSpace=wrap;html=1;pointerEvents=0;width=161;height=20;" parent="1" vertex="1">
          <mxGeometry x="59" y="680" width="711" height="340" as="geometry" />
        </mxCell>
        <mxCell id="d_UsGCD6Z9H_3SM3KAdA-11" value="c:Club" style="shape=umlLifeline;perimeter=lifelinePerimeter;whiteSpace=wrap;html=1;container=1;dropTarget=0;collapsible=0;recursiveResize=0;outlineConnect=0;portConstraint=eastwest;newEdgeStyle={&quot;curved&quot;:0,&quot;rounded&quot;:0};" parent="1" vertex="1">
          <mxGeometry x="364" y="710" width="100" height="310" as="geometry" />
        </mxCell>
        <mxCell id="d_UsGCD6Z9H_3SM3KAdA-13" value="" style="html=1;points=[[0,0,0,0,5],[0,1,0,0,-5],[1,0,0,0,5],[1,1,0,0,-5]];perimeter=orthogonalPerimeter;outlineConnect=0;targetShapes=umlLifeline;portConstraint=eastwest;newEdgeStyle={&quot;curved&quot;:0,&quot;rounded&quot;:0};" parent="d_UsGCD6Z9H_3SM3KAdA-11" vertex="1">
          <mxGeometry x="45" y="120" width="10" height="80" as="geometry" />
        </mxCell>
        <mxCell id="d_UsGCD6Z9H_3SM3KAdA-12" value="CreateServiсe(args [])" style="html=1;verticalAlign=bottom;endArrow=block;curved=0;rounded=0;" parent="1" edge="1">
          <mxGeometry width="80" relative="1" as="geometry">
            <mxPoint x="172.43000000000006" y="830" as="sourcePoint" />
            <mxPoint x="409" y="830" as="targetPoint" />
          </mxGeometry>
        </mxCell>
        <mxCell id="QkGJuYUU9Eaw29t537wm-1" value="s:Service" style="shape=umlLifeline;perimeter=lifelinePerimeter;whiteSpace=wrap;html=1;container=1;dropTarget=0;collapsible=0;recursiveResize=0;outlineConnect=0;portConstraint=eastwest;newEdgeStyle={&quot;curved&quot;:0,&quot;rounded&quot;:0};" parent="1" vertex="1">
          <mxGeometry x="580" y="830" width="100" height="190" as="geometry" />
        </mxCell>
        <mxCell id="QkGJuYUU9Eaw29t537wm-3" value="new(args [])" style="html=1;verticalAlign=bottom;endArrow=open;curved=0;rounded=0;dashed=1;endFill=0;entryX=0;entryY=0.067;entryDx=0;entryDy=0;entryPerimeter=0;" parent="1" edge="1">
          <mxGeometry x="0.0046" width="80" relative="1" as="geometry">
            <mxPoint x="419" y="849.44" as="sourcePoint" />
            <mxPoint x="580" y="849.44" as="targetPoint" />
            <mxPoint as="offset" />
          </mxGeometry>
        </mxCell>
        <mxCell id="QkGJuYUU9Eaw29t537wm-4" value="" style="html=1;verticalAlign=bottom;endArrow=open;curved=0;rounded=0;dashed=1;endFill=0;exitX=0;exitY=1;exitDx=0;exitDy=-5;exitPerimeter=0;" parent="1" edge="1">
          <mxGeometry width="80" relative="1" as="geometry">
            <mxPoint x="409" y="910" as="sourcePoint" />
            <mxPoint x="172.43" y="910" as="targetPoint" />
          </mxGeometry>
        </mxCell>
        <mxCell id="QkGJuYUU9Eaw29t537wm-5" value="Administrate(args [])" style="html=1;verticalAlign=bottom;startArrow=circle;startFill=1;endArrow=open;startSize=6;endSize=8;curved=0;rounded=0;" parent="1" edge="1">
          <mxGeometry width="80" relative="1" as="geometry">
            <mxPoint x="82" y="780" as="sourcePoint" />
            <mxPoint x="162" y="780" as="targetPoint" />
          </mxGeometry>
        </mxCell>
        <mxCell id="QkGJuYUU9Eaw29t537wm-6" value="" style="html=1;verticalAlign=bottom;startArrow=circle;startFill=1;endArrow=none;startSize=6;endSize=8;curved=0;rounded=0;endFill=0;dashed=1;" parent="1" edge="1">
          <mxGeometry width="80" relative="1" as="geometry">
            <mxPoint x="82" y="970" as="sourcePoint" />
            <mxPoint x="102" y="970" as="targetPoint" />
          </mxGeometry>
        </mxCell>
        <mxCell id="QkGJuYUU9Eaw29t537wm-8" value="" style="html=1;verticalAlign=bottom;endArrow=open;curved=0;rounded=0;dashed=1;endFill=0;" parent="1" edge="1">
          <mxGeometry width="80" relative="1" as="geometry">
            <mxPoint x="160" y="970" as="sourcePoint" />
            <mxPoint x="95" y="970" as="targetPoint" />
          </mxGeometry>
        </mxCell>
        <mxCell id="QkGJuYUU9Eaw29t537wm-9" value="sd созданиеБонуса" style="shape=umlFrame;whiteSpace=wrap;html=1;pointerEvents=0;width=161;height=20;" parent="1" vertex="1">
          <mxGeometry x="59" y="1070" width="711" height="340" as="geometry" />
        </mxCell>
        <mxCell id="QkGJuYUU9Eaw29t537wm-13" value="c:Club" style="shape=umlLifeline;perimeter=lifelinePerimeter;whiteSpace=wrap;html=1;container=1;dropTarget=0;collapsible=0;recursiveResize=0;outlineConnect=0;portConstraint=eastwest;newEdgeStyle={&quot;curved&quot;:0,&quot;rounded&quot;:0};" parent="1" vertex="1">
          <mxGeometry x="364" y="1100" width="100" height="310" as="geometry" />
        </mxCell>
        <mxCell id="QkGJuYUU9Eaw29t537wm-14" value="" style="html=1;points=[[0,0,0,0,5],[0,1,0,0,-5],[1,0,0,0,5],[1,1,0,0,-5]];perimeter=orthogonalPerimeter;outlineConnect=0;targetShapes=umlLifeline;portConstraint=eastwest;newEdgeStyle={&quot;curved&quot;:0,&quot;rounded&quot;:0};" parent="QkGJuYUU9Eaw29t537wm-13" vertex="1">
          <mxGeometry x="45" y="120" width="10" height="80" as="geometry" />
        </mxCell>
        <mxCell id="QkGJuYUU9Eaw29t537wm-15" value="CreateBonus(args [])" style="html=1;verticalAlign=bottom;endArrow=block;curved=0;rounded=0;" parent="1" edge="1">
          <mxGeometry width="80" relative="1" as="geometry">
            <mxPoint x="172.43000000000006" y="1220" as="sourcePoint" />
            <mxPoint x="409" y="1220" as="targetPoint" />
          </mxGeometry>
        </mxCell>
        <mxCell id="QkGJuYUU9Eaw29t537wm-16" value="b:Bonus" style="shape=umlLifeline;perimeter=lifelinePerimeter;whiteSpace=wrap;html=1;container=1;dropTarget=0;collapsible=0;recursiveResize=0;outlineConnect=0;portConstraint=eastwest;newEdgeStyle={&quot;curved&quot;:0,&quot;rounded&quot;:0};" parent="1" vertex="1">
          <mxGeometry x="580" y="1220" width="100" height="190" as="geometry" />
        </mxCell>
        <mxCell id="QkGJuYUU9Eaw29t537wm-17" value="new(args [])" style="html=1;verticalAlign=bottom;endArrow=open;curved=0;rounded=0;dashed=1;endFill=0;entryX=0;entryY=0.067;entryDx=0;entryDy=0;entryPerimeter=0;" parent="1" edge="1">
          <mxGeometry width="80" relative="1" as="geometry">
            <mxPoint x="419" y="1239.44" as="sourcePoint" />
            <mxPoint x="580" y="1239.44" as="targetPoint" />
          </mxGeometry>
        </mxCell>
        <mxCell id="QkGJuYUU9Eaw29t537wm-18" value="" style="html=1;verticalAlign=bottom;endArrow=open;curved=0;rounded=0;dashed=1;endFill=0;exitX=0;exitY=1;exitDx=0;exitDy=-5;exitPerimeter=0;" parent="1" edge="1">
          <mxGeometry width="80" relative="1" as="geometry">
            <mxPoint x="409" y="1300" as="sourcePoint" />
            <mxPoint x="172.43000000000006" y="1300" as="targetPoint" />
          </mxGeometry>
        </mxCell>
        <mxCell id="QkGJuYUU9Eaw29t537wm-20" value="" style="html=1;verticalAlign=bottom;startArrow=circle;startFill=1;endArrow=none;startSize=6;endSize=8;curved=0;rounded=0;endFill=0;dashed=1;" parent="1" edge="1">
          <mxGeometry width="80" relative="1" as="geometry">
            <mxPoint x="82" y="1360" as="sourcePoint" />
            <mxPoint x="102" y="1360" as="targetPoint" />
          </mxGeometry>
        </mxCell>
        <mxCell id="QkGJuYUU9Eaw29t537wm-21" value="" style="html=1;verticalAlign=bottom;endArrow=open;curved=0;rounded=0;dashed=1;endFill=0;" parent="1" edge="1">
          <mxGeometry width="80" relative="1" as="geometry">
            <mxPoint x="160" y="1360" as="sourcePoint" />
            <mxPoint x="95" y="1360" as="targetPoint" />
          </mxGeometry>
        </mxCell>
        <mxCell id="Mbmm-J63RhQ-B_TLj6kd-3" value="a:Administrator" style="shape=umlLifeline;perimeter=lifelinePerimeter;whiteSpace=wrap;html=1;container=1;dropTarget=0;collapsible=0;recursiveResize=0;outlineConnect=0;portConstraint=eastwest;newEdgeStyle={&quot;curved&quot;:0,&quot;rounded&quot;:0};" parent="1" vertex="1">
          <mxGeometry x="120" y="710" width="100" height="310" as="geometry" />
        </mxCell>
        <mxCell id="Mbmm-J63RhQ-B_TLj6kd-4" value="" style="html=1;points=[[0,0,0,0,5],[0,1,0,0,-5],[1,0,0,0,5],[1,1,0,0,-5]];perimeter=orthogonalPerimeter;outlineConnect=0;targetShapes=umlLifeline;portConstraint=eastwest;newEdgeStyle={&quot;curved&quot;:0,&quot;rounded&quot;:0};" parent="Mbmm-J63RhQ-B_TLj6kd-3" vertex="1">
          <mxGeometry x="45" y="70" width="10" height="190" as="geometry" />
        </mxCell>
        <mxCell id="EOiVDlzPM_iLjTpI2Wf3-1" value="a:Administrator" style="shape=umlLifeline;perimeter=lifelinePerimeter;whiteSpace=wrap;html=1;container=1;dropTarget=0;collapsible=0;recursiveResize=0;outlineConnect=0;portConstraint=eastwest;newEdgeStyle={&quot;curved&quot;:0,&quot;rounded&quot;:0};" parent="1" vertex="1">
          <mxGeometry x="117" y="1100" width="100" height="310" as="geometry" />
        </mxCell>
        <mxCell id="EOiVDlzPM_iLjTpI2Wf3-2" value="" style="html=1;points=[[0,0,0,0,5],[0,1,0,0,-5],[1,0,0,0,5],[1,1,0,0,-5]];perimeter=orthogonalPerimeter;outlineConnect=0;targetShapes=umlLifeline;portConstraint=eastwest;newEdgeStyle={&quot;curved&quot;:0,&quot;rounded&quot;:0};" parent="EOiVDlzPM_iLjTpI2Wf3-1" vertex="1">
          <mxGeometry x="45" y="70" width="10" height="190" as="geometry" />
        </mxCell>
        <mxCell id="QkGJuYUU9Eaw29t537wm-19" value="Administrate(args [])" style="html=1;verticalAlign=bottom;startArrow=circle;startFill=1;endArrow=open;startSize=6;endSize=8;curved=0;rounded=0;" parent="1" edge="1">
          <mxGeometry width="80" relative="1" as="geometry">
            <mxPoint x="82" y="1170" as="sourcePoint" />
            <mxPoint x="162" y="1170" as="targetPoint" />
          </mxGeometry>
        </mxCell>
        <mxCell id="UwEYUjgk4AJ5s95oTWXf-1" value="serviceList.Add(service)" style="html=1;verticalAlign=bottom;endArrow=block;curved=0;rounded=0;" parent="1" edge="1">
          <mxGeometry x="0.2381" y="-38" width="80" relative="1" as="geometry">
            <mxPoint x="420.00000000000006" y="880" as="sourcePoint" />
            <mxPoint x="420.00000000000006" y="900" as="targetPoint" />
            <Array as="points">
              <mxPoint x="452.00000000000006" y="880" />
              <mxPoint x="452.00000000000006" y="890" />
              <mxPoint x="452.00000000000006" y="900" />
            </Array>
            <mxPoint x="38" y="38" as="offset" />
          </mxGeometry>
        </mxCell>
        <mxCell id="UwEYUjgk4AJ5s95oTWXf-2" value="bonusList.Add(bonus)" style="html=1;verticalAlign=bottom;endArrow=block;curved=0;rounded=0;" parent="1" edge="1">
          <mxGeometry x="0.2381" y="-38" width="80" relative="1" as="geometry">
            <mxPoint x="419.00000000000006" y="1270" as="sourcePoint" />
            <mxPoint x="419.00000000000006" y="1290" as="targetPoint" />
            <Array as="points">
              <mxPoint x="451.00000000000006" y="1270" />
              <mxPoint x="451.00000000000006" y="1280" />
              <mxPoint x="451.00000000000006" y="1290" />
            </Array>
            <mxPoint x="38" y="38" as="offset" />
          </mxGeometry>
        </mxCell>
      </root>
    </mxGraphModel>
  </diagram>
  <diagram id="Q0iZjqSCz9K_wN_85LVR" name="Диаграмма объектов">
    <mxGraphModel dx="1050" dy="555" grid="1" gridSize="10" guides="1" tooltips="1" connect="1" arrows="1" fold="1" page="1" pageScale="1" pageWidth="827" pageHeight="1169" math="0" shadow="0">
      <root>
        <mxCell id="0" />
        <mxCell id="1" parent="0" />
        <mxCell id="PwLJ5XZk6Yqh-ydyuGPF-1" value="club: Club" style="swimlane;fontStyle=0;childLayout=stackLayout;horizontal=1;startSize=26;fillColor=none;horizontalStack=0;resizeParent=1;resizeParentMax=0;resizeLast=0;collapsible=1;marginBottom=0;whiteSpace=wrap;html=1;" parent="1" vertex="1">
          <mxGeometry x="344" y="50" width="140" height="52" as="geometry" />
        </mxCell>
        <mxCell id="PwLJ5XZk6Yqh-ydyuGPF-2" value="name = &quot;Клуб&quot;" style="text;strokeColor=none;fillColor=none;align=left;verticalAlign=top;spacingLeft=4;spacingRight=4;overflow=hidden;rotatable=0;points=[[0,0.5],[1,0.5]];portConstraint=eastwest;whiteSpace=wrap;html=1;" parent="PwLJ5XZk6Yqh-ydyuGPF-1" vertex="1">
          <mxGeometry y="26" width="140" height="26" as="geometry" />
        </mxCell>
        <mxCell id="PwLJ5XZk6Yqh-ydyuGPF-5" value="staff: Staff" style="swimlane;fontStyle=0;childLayout=stackLayout;horizontal=1;startSize=26;fillColor=none;horizontalStack=0;resizeParent=1;resizeParentMax=0;resizeLast=0;collapsible=1;marginBottom=0;whiteSpace=wrap;html=1;" parent="1" vertex="1">
          <mxGeometry x="20" y="250" width="140" height="78" as="geometry" />
        </mxCell>
        <mxCell id="PwLJ5XZk6Yqh-ydyuGPF-6" value="name = &quot;Персонал&quot;" style="text;strokeColor=none;fillColor=none;align=left;verticalAlign=top;spacingLeft=4;spacingRight=4;overflow=hidden;rotatable=0;points=[[0,0.5],[1,0.5]];portConstraint=eastwest;whiteSpace=wrap;html=1;" parent="PwLJ5XZk6Yqh-ydyuGPF-5" vertex="1">
          <mxGeometry y="26" width="140" height="26" as="geometry" />
        </mxCell>
        <mxCell id="PwLJ5XZk6Yqh-ydyuGPF-9" value="position = &quot;тренер&quot;" style="text;strokeColor=none;fillColor=none;align=left;verticalAlign=top;spacingLeft=4;spacingRight=4;overflow=hidden;rotatable=0;points=[[0,0.5],[1,0.5]];portConstraint=eastwest;whiteSpace=wrap;html=1;" parent="PwLJ5XZk6Yqh-ydyuGPF-5" vertex="1">
          <mxGeometry y="52" width="140" height="26" as="geometry" />
        </mxCell>
        <mxCell id="PwLJ5XZk6Yqh-ydyuGPF-7" value="service: Service" style="swimlane;fontStyle=0;childLayout=stackLayout;horizontal=1;startSize=26;fillColor=none;horizontalStack=0;resizeParent=1;resizeParentMax=0;resizeLast=0;collapsible=1;marginBottom=0;whiteSpace=wrap;html=1;" parent="1" vertex="1">
          <mxGeometry x="670" y="250" width="140" height="78" as="geometry" />
        </mxCell>
        <mxCell id="PwLJ5XZk6Yqh-ydyuGPF-8" value="name = &quot;Услуга&quot;" style="text;strokeColor=none;fillColor=none;align=left;verticalAlign=top;spacingLeft=4;spacingRight=4;overflow=hidden;rotatable=0;points=[[0,0.5],[1,0.5]];portConstraint=eastwest;whiteSpace=wrap;html=1;" parent="PwLJ5XZk6Yqh-ydyuGPF-7" vertex="1">
          <mxGeometry y="26" width="140" height="26" as="geometry" />
        </mxCell>
        <mxCell id="PwLJ5XZk6Yqh-ydyuGPF-13" value="price = 1000" style="text;strokeColor=none;fillColor=none;align=left;verticalAlign=top;spacingLeft=4;spacingRight=4;overflow=hidden;rotatable=0;points=[[0,0.5],[1,0.5]];portConstraint=eastwest;whiteSpace=wrap;html=1;" parent="PwLJ5XZk6Yqh-ydyuGPF-7" vertex="1">
          <mxGeometry y="52" width="140" height="26" as="geometry" />
        </mxCell>
        <mxCell id="PwLJ5XZk6Yqh-ydyuGPF-11" value="member: Member" style="swimlane;fontStyle=0;childLayout=stackLayout;horizontal=1;startSize=26;fillColor=none;horizontalStack=0;resizeParent=1;resizeParentMax=0;resizeLast=0;collapsible=1;marginBottom=0;whiteSpace=wrap;html=1;" parent="1" vertex="1">
          <mxGeometry x="221" y="260" width="140" height="52" as="geometry" />
        </mxCell>
        <mxCell id="PwLJ5XZk6Yqh-ydyuGPF-12" value="name = &quot;Участник&quot;" style="text;strokeColor=none;fillColor=none;align=left;verticalAlign=top;spacingLeft=4;spacingRight=4;overflow=hidden;rotatable=0;points=[[0,0.5],[1,0.5]];portConstraint=eastwest;whiteSpace=wrap;html=1;" parent="PwLJ5XZk6Yqh-ydyuGPF-11" vertex="1">
          <mxGeometry y="26" width="140" height="26" as="geometry" />
        </mxCell>
        <mxCell id="PwLJ5XZk6Yqh-ydyuGPF-16" value="visit: Visit" style="swimlane;fontStyle=0;childLayout=stackLayout;horizontal=1;startSize=26;fillColor=none;horizontalStack=0;resizeParent=1;resizeParentMax=0;resizeLast=0;collapsible=1;marginBottom=0;whiteSpace=wrap;html=1;" parent="1" vertex="1">
          <mxGeometry x="221" y="397" width="140" height="52" as="geometry" />
        </mxCell>
        <mxCell id="PwLJ5XZk6Yqh-ydyuGPF-17" value="date = &quot;01.01.2000&quot;" style="text;strokeColor=none;fillColor=none;align=left;verticalAlign=top;spacingLeft=4;spacingRight=4;overflow=hidden;rotatable=0;points=[[0,0.5],[1,0.5]];portConstraint=eastwest;whiteSpace=wrap;html=1;" parent="PwLJ5XZk6Yqh-ydyuGPF-16" vertex="1">
          <mxGeometry y="26" width="140" height="26" as="geometry" />
        </mxCell>
        <mxCell id="PwLJ5XZk6Yqh-ydyuGPF-18" value="aos: ActOfService" style="swimlane;fontStyle=0;childLayout=stackLayout;horizontal=1;startSize=26;fillColor=none;horizontalStack=0;resizeParent=1;resizeParentMax=0;resizeLast=0;collapsible=1;marginBottom=0;whiteSpace=wrap;html=1;" parent="1" vertex="1">
          <mxGeometry x="201" y="537" width="180" height="78" as="geometry" />
        </mxCell>
        <mxCell id="PwLJ5XZk6Yqh-ydyuGPF-19" value="datetime = &quot;01.01.2000 12:00&quot;" style="text;strokeColor=none;fillColor=none;align=left;verticalAlign=top;spacingLeft=4;spacingRight=4;overflow=hidden;rotatable=0;points=[[0,0.5],[1,0.5]];portConstraint=eastwest;whiteSpace=wrap;html=1;" parent="PwLJ5XZk6Yqh-ydyuGPF-18" vertex="1">
          <mxGeometry y="26" width="180" height="26" as="geometry" />
        </mxCell>
        <mxCell id="tEczva2VEj28c6mPTlpH-1" value="price = 800" style="text;strokeColor=none;fillColor=none;align=left;verticalAlign=top;spacingLeft=4;spacingRight=4;overflow=hidden;rotatable=0;points=[[0,0.5],[1,0.5]];portConstraint=eastwest;whiteSpace=wrap;html=1;" parent="PwLJ5XZk6Yqh-ydyuGPF-18" vertex="1">
          <mxGeometry y="52" width="180" height="26" as="geometry" />
        </mxCell>
        <mxCell id="PwLJ5XZk6Yqh-ydyuGPF-21" value="" style="endArrow=diamondThin;endFill=0;endSize=24;html=1;rounded=0;exitX=0.5;exitY=0;exitDx=0;exitDy=0;entryX=0.5;entryY=1.192;entryDx=0;entryDy=0;entryPerimeter=0;" parent="1" source="PwLJ5XZk6Yqh-ydyuGPF-16" target="PwLJ5XZk6Yqh-ydyuGPF-12" edge="1">
          <mxGeometry width="160" relative="1" as="geometry">
            <mxPoint x="-39" y="467" as="sourcePoint" />
            <mxPoint x="291" y="357" as="targetPoint" />
          </mxGeometry>
        </mxCell>
        <mxCell id="PwLJ5XZk6Yqh-ydyuGPF-24" value="" style="endArrow=diamondThin;endFill=1;endSize=24;html=1;rounded=0;edgeStyle=orthogonalEdgeStyle;entryX=0.5;entryY=1;entryDx=0;entryDy=0;exitX=0.5;exitY=0;exitDx=0;exitDy=0;" parent="1" source="PwLJ5XZk6Yqh-ydyuGPF-18" target="PwLJ5XZk6Yqh-ydyuGPF-16" edge="1">
          <mxGeometry width="160" relative="1" as="geometry">
            <mxPoint x="211" y="487" as="sourcePoint" />
            <mxPoint x="371" y="487" as="targetPoint" />
          </mxGeometry>
        </mxCell>
        <mxCell id="PwLJ5XZk6Yqh-ydyuGPF-29" value="bonus: Bonus" style="swimlane;fontStyle=0;childLayout=stackLayout;horizontal=1;startSize=26;fillColor=none;horizontalStack=0;resizeParent=1;resizeParentMax=0;resizeLast=0;collapsible=1;marginBottom=0;whiteSpace=wrap;html=1;" parent="1" vertex="1">
          <mxGeometry x="460" y="250" width="140" height="78" as="geometry" />
        </mxCell>
        <mxCell id="PwLJ5XZk6Yqh-ydyuGPF-30" value="name = &quot;Бонус&quot;" style="text;strokeColor=none;fillColor=none;align=left;verticalAlign=top;spacingLeft=4;spacingRight=4;overflow=hidden;rotatable=0;points=[[0,0.5],[1,0.5]];portConstraint=eastwest;whiteSpace=wrap;html=1;" parent="PwLJ5XZk6Yqh-ydyuGPF-29" vertex="1">
          <mxGeometry y="26" width="140" height="26" as="geometry" />
        </mxCell>
        <mxCell id="PwLJ5XZk6Yqh-ydyuGPF-31" value="discount = 0.2" style="text;strokeColor=none;fillColor=none;align=left;verticalAlign=top;spacingLeft=4;spacingRight=4;overflow=hidden;rotatable=0;points=[[0,0.5],[1,0.5]];portConstraint=eastwest;whiteSpace=wrap;html=1;" parent="PwLJ5XZk6Yqh-ydyuGPF-29" vertex="1">
          <mxGeometry y="52" width="140" height="26" as="geometry" />
        </mxCell>
        <mxCell id="plRfpiCwHUV23vzpC9Ke-2" value="" style="endArrow=open;endFill=1;endSize=12;html=1;rounded=0;edgeStyle=orthogonalEdgeStyle;entryX=0;entryY=0.538;entryDx=0;entryDy=0;entryPerimeter=0;exitX=0.993;exitY=0.154;exitDx=0;exitDy=0;exitPerimeter=0;" parent="1" source="PwLJ5XZk6Yqh-ydyuGPF-12" target="PwLJ5XZk6Yqh-ydyuGPF-30" edge="1">
          <mxGeometry width="160" relative="1" as="geometry">
            <mxPoint x="390" y="290" as="sourcePoint" />
            <mxPoint x="457" y="288.65999999999997" as="targetPoint" />
          </mxGeometry>
        </mxCell>
        <mxCell id="plRfpiCwHUV23vzpC9Ke-3" value="" style="endArrow=open;endFill=1;endSize=12;html=1;rounded=0;exitX=1;exitY=0;exitDx=0;exitDy=0;entryX=0.027;entryY=1.148;entryDx=0;entryDy=0;entryPerimeter=0;" parent="1" source="PwLJ5XZk6Yqh-ydyuGPF-18" target="PwLJ5XZk6Yqh-ydyuGPF-13" edge="1">
          <mxGeometry width="160" relative="1" as="geometry">
            <mxPoint x="440" y="550" as="sourcePoint" />
            <mxPoint x="620" y="430" as="targetPoint" />
          </mxGeometry>
        </mxCell>
        <mxCell id="plRfpiCwHUV23vzpC9Ke-5" value="" style="endArrow=open;endFill=1;endSize=12;html=1;rounded=0;exitX=0;exitY=0;exitDx=0;exitDy=0;entryX=0.46;entryY=1.148;entryDx=0;entryDy=0;entryPerimeter=0;" parent="1" source="PwLJ5XZk6Yqh-ydyuGPF-18" target="PwLJ5XZk6Yqh-ydyuGPF-9" edge="1">
          <mxGeometry width="160" relative="1" as="geometry">
            <mxPoint x="-200" y="675" as="sourcePoint" />
            <mxPoint x="94" y="470" as="targetPoint" />
          </mxGeometry>
        </mxCell>
        <mxCell id="plRfpiCwHUV23vzpC9Ke-6" value="" style="endArrow=diamondThin;endFill=0;endSize=24;html=1;rounded=0;edgeStyle=orthogonalEdgeStyle;entryX=0.116;entryY=1.038;entryDx=0;entryDy=0;entryPerimeter=0;exitX=0.5;exitY=0;exitDx=0;exitDy=0;jumpStyle=arc;" parent="1" source="PwLJ5XZk6Yqh-ydyuGPF-5" target="PwLJ5XZk6Yqh-ydyuGPF-2" edge="1">
          <mxGeometry width="160" relative="1" as="geometry">
            <mxPoint x="60" y="150" as="sourcePoint" />
            <mxPoint x="220" y="150" as="targetPoint" />
            <Array as="points">
              <mxPoint x="90" y="170" />
              <mxPoint x="360" y="170" />
            </Array>
          </mxGeometry>
        </mxCell>
        <mxCell id="plRfpiCwHUV23vzpC9Ke-7" value="" style="endArrow=diamondThin;endFill=0;endSize=24;html=1;rounded=0;edgeStyle=orthogonalEdgeStyle;exitX=0.5;exitY=0;exitDx=0;exitDy=0;entryX=0.352;entryY=1.111;entryDx=0;entryDy=0;entryPerimeter=0;" parent="1" source="PwLJ5XZk6Yqh-ydyuGPF-11" target="PwLJ5XZk6Yqh-ydyuGPF-2" edge="1">
          <mxGeometry width="160" relative="1" as="geometry">
            <mxPoint x="240" y="210" as="sourcePoint" />
            <mxPoint x="410" y="140" as="targetPoint" />
            <Array as="points">
              <mxPoint x="291" y="201" />
              <mxPoint x="393" y="201" />
            </Array>
          </mxGeometry>
        </mxCell>
        <mxCell id="plRfpiCwHUV23vzpC9Ke-8" value="" style="endArrow=diamondThin;endFill=1;endSize=24;html=1;rounded=0;edgeStyle=orthogonalEdgeStyle;exitX=0.5;exitY=0;exitDx=0;exitDy=0;entryX=0.621;entryY=1.038;entryDx=0;entryDy=0;entryPerimeter=0;" parent="1" source="PwLJ5XZk6Yqh-ydyuGPF-29" target="PwLJ5XZk6Yqh-ydyuGPF-2" edge="1">
          <mxGeometry width="160" relative="1" as="geometry">
            <mxPoint x="530" y="140" as="sourcePoint" />
            <mxPoint x="430" y="110" as="targetPoint" />
            <Array as="points">
              <mxPoint x="530" y="200" />
              <mxPoint x="431" y="200" />
            </Array>
          </mxGeometry>
        </mxCell>
        <mxCell id="plRfpiCwHUV23vzpC9Ke-9" value="" style="endArrow=diamondThin;endFill=1;endSize=24;html=1;rounded=0;edgeStyle=orthogonalEdgeStyle;entryX=0.809;entryY=1.111;entryDx=0;entryDy=0;entryPerimeter=0;exitX=0.5;exitY=0;exitDx=0;exitDy=0;" parent="1" source="PwLJ5XZk6Yqh-ydyuGPF-7" edge="1">
          <mxGeometry width="160" relative="1" as="geometry">
            <mxPoint x="730" y="220" as="sourcePoint" />
            <mxPoint x="470" y="104.88599999999997" as="targetPoint" />
            <Array as="points">
              <mxPoint x="740" y="170" />
              <mxPoint x="470" y="170" />
            </Array>
          </mxGeometry>
        </mxCell>
        <mxCell id="adURAvKPS3-V-yp9Qrfe-1" value="adm: Administrator" style="swimlane;fontStyle=0;childLayout=stackLayout;horizontal=1;startSize=26;fillColor=none;horizontalStack=0;resizeParent=1;resizeParentMax=0;resizeLast=0;collapsible=1;marginBottom=0;whiteSpace=wrap;html=1;" vertex="1" parent="1">
          <mxGeometry x="30" y="50" width="160" height="52" as="geometry" />
        </mxCell>
        <mxCell id="adURAvKPS3-V-yp9Qrfe-2" value="name = &quot;Администратор&quot;" style="text;strokeColor=none;fillColor=none;align=left;verticalAlign=top;spacingLeft=4;spacingRight=4;overflow=hidden;rotatable=0;points=[[0,0.5],[1,0.5]];portConstraint=eastwest;whiteSpace=wrap;html=1;" vertex="1" parent="adURAvKPS3-V-yp9Qrfe-1">
          <mxGeometry y="26" width="160" height="26" as="geometry" />
        </mxCell>
        <mxCell id="adURAvKPS3-V-yp9Qrfe-4" value="" style="endArrow=open;endFill=1;endSize=12;html=1;rounded=0;" edge="1" parent="1">
          <mxGeometry width="160" relative="1" as="geometry">
            <mxPoint x="190" y="60" as="sourcePoint" />
            <mxPoint x="344" y="60" as="targetPoint" />
          </mxGeometry>
        </mxCell>
        <mxCell id="adURAvKPS3-V-yp9Qrfe-5" value="" style="endArrow=open;endFill=1;endSize=12;html=1;rounded=0;edgeStyle=orthogonalEdgeStyle;exitX=0.326;exitY=-0.003;exitDx=0;exitDy=0;exitPerimeter=0;jumpStyle=arc;" edge="1" parent="1" source="PwLJ5XZk6Yqh-ydyuGPF-11">
          <mxGeometry width="160" relative="1" as="geometry">
            <mxPoint x="190" y="90" as="sourcePoint" />
            <mxPoint x="344" y="90" as="targetPoint" />
            <Array as="points">
              <mxPoint x="267" y="90" />
            </Array>
          </mxGeometry>
        </mxCell>
        <mxCell id="adURAvKPS3-V-yp9Qrfe-6" value="" style="endArrow=open;endFill=1;endSize=12;html=1;rounded=0;edgeStyle=orthogonalEdgeStyle;jumpStyle=arc;exitX=0.25;exitY=0;exitDx=0;exitDy=0;" edge="1" parent="1" source="PwLJ5XZk6Yqh-ydyuGPF-5">
          <mxGeometry width="160" relative="1" as="geometry">
            <mxPoint x="180" y="140" as="sourcePoint" />
            <mxPoint x="345.5" y="75" as="targetPoint" />
            <Array as="points">
              <mxPoint x="55" y="140" />
              <mxPoint x="230" y="140" />
              <mxPoint x="230" y="75" />
            </Array>
          </mxGeometry>
        </mxCell>
      </root>
    </mxGraphModel>
  </diagram>
</mxfile>
